<?xml version="1.0" standalone="no"?><!DOCTYPE svg PUBLIC "-//W3C//DTD SVG 1.1//EN" "http://www.w3.org/Graphics/SVG/1.1/DTD/svg11.dtd"><svg width="200" height="200" viewBox="0 0 200 200" version="1.1" xmlns="http://www.w3.org/2000/svg" xmlns:xlink="http://www.w3.org/1999/xlink"><defs><style type="text/css"><![CDATA[

]]></style></defs><g class="transform-group"><g transform="scale(0.1953125, 0.1953125)"><path d="M892.921 588.567c-12.795-30.614-29.179-58.156-46.515-80.609 14.122-10.657 23.983-33.049 23.983-59.201 0-36.233-18.74-65.614-41.865-65.894 1.997-13.872 3.402-27.947 3.402-42.333 0-167.616-139.591-303.431-311.811-303.431-172.157 0-311.717 135.815-311.717 303.431 0 16.103 1.669 31.801 4.15 47.201-15.463 9.799-26.386 33.408-26.386 61.042 0 15.963 3.776 30.396 9.83 41.787-20.066 21.174-39.602 48.325-55.628 79.595-44.206 86.43-37.605 173.764-10.407 187.995 13.981 7.287 50.432-15.697 86.211-58.249 5.789 50.103 29.897 95.839 66.894 132.617-61.214 17.742-101.846 52.709-96.4 88.286 6.772 44.955 84.245 73.728 173.155 64.319 65.255-6.928 118.323-32.549 139.311-63.476 5.461 0.234 10.845 0.687 16.384 0.687 9.518 0 18.927-0.452 28.227-1.17 22.563 29.35 72.495 53.755 132.851 61.308 86.164 10.735 160.751-16.883 166.54-61.682 4.588-35.327-34.953-70.764-94.076-89.472 34.765-34.983 57.859-77.956 64.849-124.987 31.817 42.723 64.366 70.077 81.405 66.395 20.051-4.369 34.375-96.213-2.387-184.156z" fill="#aaaaaa"></path></g></g></svg>